<svg xmlns="http://www.w3.org/2000/svg" role="img" aria-labelledby="title description" width="1600" height="1704" viewBox="0 0 1600 1704">
  <title id="title">Book Tracker route access and write matrix</title>
  <desc id="description">Every route, how it is reached, who can read it, and the page or server writes available there.</desc>
  <rect width="1600" height="1704" fill="#ffffff"/>
  <text x="40" y="48" fill="#173f41" font-family="Arial, Helvetica, sans-serif" font-size="30" font-weight="700"><tspan x="40" dy="0">Route access and writes</tspan></text>
  <text x="40" y="82" fill="#52615e" font-family="Arial, Helvetica, sans-serif" font-size="17" font-weight="400"><tspan x="40" dy="0">Every application path, its entry points, authoritative reader, and data-changing actions</tspan></text>
  <rect x="40" y="112" width="260" height="58" rx="9" fill="#35686a" stroke="#35686a" stroke-width="2"/><text x="58" y="149" fill="#ffffff" font-family="Arial, Helvetica, sans-serif" font-size="18" font-weight="700"><tspan x="58" dy="0">Route</tspan></text><rect x="312" y="112" width="398" height="58" rx="9" fill="#35686a" stroke="#35686a" stroke-width="2"/><text x="330" y="149" fill="#ffffff" font-family="Arial, Helvetica, sans-serif" font-size="18" font-weight="700"><tspan x="330" dy="0">Reached from</tspan></text><rect x="722" y="112" width="350" height="58" rx="9" fill="#35686a" stroke="#35686a" stroke-width="2"/><text x="740" y="149" fill="#ffffff" font-family="Arial, Helvetica, sans-serif" font-size="18" font-weight="700"><tspan x="740" dy="0">Read access</tspan></text><rect x="1084" y="112" width="476" height="58" rx="9" fill="#35686a" stroke="#35686a" stroke-width="2"/><text x="1102" y="149" fill="#ffffff" font-family="Arial, Helvetica, sans-serif" font-size="18" font-weight="700"><tspan x="1102" dy="0">Writes available</tspan></text>
  <rect x="40" y="184" width="260" height="116" rx="10" fill="#e8f2f1" stroke="#35686a" stroke-width="2"/><text x="58" y="222" fill="#263331" font-family="Arial, Helvetica, sans-serif" font-size="18" font-weight="700"><tspan x="58" dy="0">Currently Reading</tspan></text><text x="58" y="254" fill="#173f41" font-family="SFMono-Regular, Consolas, Liberation Mono, monospace" font-size="16" font-weight="400"><tspan x="58" dy="0">/</tspan></text><rect x="312" y="184" width="398" height="116" rx="10" fill="#f7f8f8" stroke="#8b9691" stroke-width="2"/><text x="330" y="232" fill="#263331" font-family="Arial, Helvetica, sans-serif" font-size="17" font-weight="400"><tspan x="330" dy="0">Navbar · My site card · direct URL</tspan><tspan x="330" dy="27">Profile &apos;Go to app&apos; link</tspan></text><rect x="722" y="184" width="350" height="116" rx="10" fill="#eaf7ef" stroke="#2e7d55" stroke-width="2"/><text x="740" y="248" fill="#263331" font-family="Arial, Helvetica, sans-serif" font-size="17" font-weight="400"><tspan x="740" dy="0">Owner</tspan></text><rect x="1084" y="184" width="476" height="116" rx="10" fill="#f4eef8" stroke="#7d5b91" stroke-width="2"/><text x="1102" y="232" fill="#263331" font-family="Arial, Helvetica, sans-serif" font-size="17" font-weight="400"><tspan x="1102" dy="0">Personal books · page updates</tspan><tspan x="1102" dy="27">Sessions · reading timers</tspan></text><rect x="40" y="310" width="260" height="116" rx="10" fill="#e8f2f1" stroke="#35686a" stroke-width="2"/><text x="58" y="348" fill="#263331" font-family="Arial, Helvetica, sans-serif" font-size="18" font-weight="700"><tspan x="58" dy="0">Finished</tspan></text><text x="58" y="380" fill="#173f41" font-family="SFMono-Regular, Consolas, Liberation Mono, monospace" font-size="16" font-weight="400"><tspan x="58" dy="0">/finished</tspan></text><rect x="312" y="310" width="398" height="116" rx="10" fill="#f7f8f8" stroke="#8b9691" stroke-width="2"/><text x="330" y="374" fill="#263331" font-family="Arial, Helvetica, sans-serif" font-size="17" font-weight="400"><tspan x="330" dy="0">Navbar · My site card · direct URL</tspan></text><rect x="722" y="310" width="350" height="116" rx="10" fill="#eaf7ef" stroke="#2e7d55" stroke-width="2"/><text x="740" y="374" fill="#263331" font-family="Arial, Helvetica, sans-serif" font-size="17" font-weight="400"><tspan x="740" dy="0">Owner</tspan></text><rect x="1084" y="310" width="476" height="116" rx="10" fill="#f4eef8" stroke="#7d5b91" stroke-width="2"/><text x="1102" y="358" fill="#263331" font-family="Arial, Helvetica, sans-serif" font-size="17" font-weight="400"><tspan x="1102" dy="0">Personal books · page updates</tspan><tspan x="1102" dy="27">Reading sessions</tspan></text><rect x="40" y="436" width="260" height="116" rx="10" fill="#e8f2f1" stroke="#35686a" stroke-width="2"/><text x="58" y="474" fill="#263331" font-family="Arial, Helvetica, sans-serif" font-size="18" font-weight="700"><tspan x="58" dy="0">My site</tspan></text><text x="58" y="506" fill="#173f41" font-family="SFMono-Regular, Consolas, Liberation Mono, monospace" font-size="16" font-weight="400"><tspan x="58" dy="0">/me</tspan></text><rect x="312" y="436" width="398" height="116" rx="10" fill="#f7f8f8" stroke="#8b9691" stroke-width="2"/><text x="330" y="500" fill="#263331" font-family="Arial, Helvetica, sans-serif" font-size="17" font-weight="400"><tspan x="330" dy="0">Navbar · direct URL</tspan></text><rect x="722" y="436" width="350" height="116" rx="10" fill="#eaf7ef" stroke="#2e7d55" stroke-width="2"/><text x="740" y="500" fill="#263331" font-family="Arial, Helvetica, sans-serif" font-size="17" font-weight="400"><tspan x="740" dy="0">Owner</tspan></text><rect x="1084" y="436" width="476" height="116" rx="10" fill="#f4eef8" stroke="#7d5b91" stroke-width="2"/><text x="1102" y="484" fill="#263331" font-family="Arial, Helvetica, sans-serif" font-size="17" font-weight="400"><tspan x="1102" dy="0">Add book · sharing settings</tspan><tspan x="1102" dy="27">Profile links · optional integrations</tspan></text><rect x="40" y="562" width="260" height="116" rx="10" fill="#e8f2f1" stroke="#35686a" stroke-width="2"/><text x="58" y="600" fill="#263331" font-family="Arial, Helvetica, sans-serif" font-size="18" font-weight="700"><tspan x="58" dy="0">Authors</tspan></text><text x="58" y="632" fill="#173f41" font-family="SFMono-Regular, Consolas, Liberation Mono, monospace" font-size="16" font-weight="400"><tspan x="58" dy="0">/authors</tspan></text><rect x="312" y="562" width="398" height="116" rx="10" fill="#f7f8f8" stroke="#8b9691" stroke-width="2"/><text x="330" y="626" fill="#263331" font-family="Arial, Helvetica, sans-serif" font-size="17" font-weight="400"><tspan x="330" dy="0">My site Authors card · direct URL</tspan></text><rect x="722" y="562" width="350" height="116" rx="10" fill="#eaf7ef" stroke="#2e7d55" stroke-width="2"/><text x="740" y="626" fill="#263331" font-family="Arial, Helvetica, sans-serif" font-size="17" font-weight="400"><tspan x="740" dy="0">Owner</tspan></text><rect x="1084" y="562" width="476" height="116" rx="10" fill="#f4eef8" stroke="#7d5b91" stroke-width="2"/><text x="1102" y="610" fill="#263331" font-family="Arial, Helvetica, sans-serif" font-size="17" font-weight="400"><tspan x="1102" dy="0">None on this page</tspan><tspan x="1102" dy="27">Shared author records are created by book edits</tspan></text><rect x="40" y="688" width="260" height="116" rx="10" fill="#e8f2f1" stroke="#35686a" stroke-width="2"/><text x="58" y="726" fill="#263331" font-family="Arial, Helvetica, sans-serif" font-size="18" font-weight="700"><tspan x="58" dy="0">Book metadata</tspan></text><text x="58" y="758" fill="#173f41" font-family="SFMono-Regular, Consolas, Liberation Mono, monospace" font-size="16" font-weight="400"><tspan x="58" dy="0">/isbns</tspan></text><rect x="312" y="688" width="398" height="116" rx="10" fill="#f7f8f8" stroke="#8b9691" stroke-width="2"/><text x="330" y="752" fill="#263331" font-family="Arial, Helvetica, sans-serif" font-size="17" font-weight="400"><tspan x="330" dy="0">My site ISBN card · direct URL</tspan></text><rect x="722" y="688" width="350" height="116" rx="10" fill="#eaf7ef" stroke="#2e7d55" stroke-width="2"/><text x="740" y="752" fill="#263331" font-family="Arial, Helvetica, sans-serif" font-size="17" font-weight="400"><tspan x="740" dy="0">Owner</tspan></text><rect x="1084" y="688" width="476" height="116" rx="10" fill="#f4eef8" stroke="#7d5b91" stroke-width="2"/><text x="1102" y="736" fill="#263331" font-family="Arial, Helvetica, sans-serif" font-size="17" font-weight="400"><tspan x="1102" dy="0">Personal book metadata</tspan><tspan x="1102" dy="27">Through the edit-book dialog</tspan></text><rect x="40" y="814" width="260" height="116" rx="10" fill="#e8f2f1" stroke="#35686a" stroke-width="2"/><text x="58" y="852" fill="#263331" font-family="Arial, Helvetica, sans-serif" font-size="18" font-weight="700"><tspan x="58" dy="0">Shared Work</tspan></text><text x="58" y="884" fill="#173f41" font-family="SFMono-Regular, Consolas, Liberation Mono, monospace" font-size="16" font-weight="400"><tspan x="58" dy="0">/books/[workId]</tspan></text><rect x="312" y="814" width="398" height="116" rx="10" fill="#f7f8f8" stroke="#8b9691" stroke-width="2"/><text x="330" y="862" fill="#263331" font-family="Arial, Helvetica, sans-serif" font-size="17" font-weight="400"><tspan x="330" dy="0">Catalog link from a personal book</tspan><tspan x="330" dy="27">Direct URL</tspan></text><rect x="722" y="814" width="350" height="116" rx="10" fill="#eaf7ef" stroke="#2e7d55" stroke-width="2"/><text x="740" y="878" fill="#263331" font-family="Arial, Helvetica, sans-serif" font-size="17" font-weight="400"><tspan x="740" dy="0">Signed-in reader</tspan></text><rect x="1084" y="814" width="476" height="116" rx="10" fill="#f4eef8" stroke="#7d5b91" stroke-width="2"/><text x="1102" y="862" fill="#263331" font-family="Arial, Helvetica, sans-serif" font-size="17" font-weight="400"><tspan x="1102" dy="0">None on this page</tspan><tspan x="1102" dy="27">Shows consented reader summaries</tspan></text><rect x="40" y="940" width="260" height="116" rx="10" fill="#e8f2f1" stroke="#35686a" stroke-width="2"/><text x="58" y="978" fill="#263331" font-family="Arial, Helvetica, sans-serif" font-size="18" font-weight="700"><tspan x="58" dy="0">Reading profile</tspan></text><text x="58" y="1010" fill="#173f41" font-family="SFMono-Regular, Consolas, Liberation Mono, monospace" font-size="16" font-weight="400"><tspan x="58" dy="0">/profiles/[username]</tspan></text><rect x="312" y="940" width="398" height="116" rx="10" fill="#f7f8f8" stroke="#8b9691" stroke-width="2"/><text x="330" y="988" fill="#263331" font-family="Arial, Helvetica, sans-serif" font-size="17" font-weight="400"><tspan x="330" dy="0">My site link · shared URL</tspan><tspan x="330" dy="27">Search result · direct URL</tspan></text><rect x="722" y="940" width="350" height="116" rx="10" fill="#edf4f6" stroke="#497789" stroke-width="2"/><text x="740" y="988" fill="#263331" font-family="Arial, Helvetica, sans-serif" font-size="17" font-weight="400"><tspan x="740" dy="0">Anyone when published</tspan><tspan x="740" dy="27">Owner when private</tspan></text><rect x="1084" y="940" width="476" height="116" rx="10" fill="#f4eef8" stroke="#7d5b91" stroke-width="2"/><text x="1102" y="988" fill="#263331" font-family="Arial, Helvetica, sans-serif" font-size="17" font-weight="400"><tspan x="1102" dy="0">None on this page</tspan><tspan x="1102" dy="27">Owner edits profile on /me</tspan></text><rect x="40" y="1066" width="260" height="116" rx="10" fill="#e8f2f1" stroke="#35686a" stroke-width="2"/><text x="58" y="1104" fill="#263331" font-family="Arial, Helvetica, sans-serif" font-size="18" font-weight="700"><tspan x="58" dy="0">Catalog console</tspan></text><text x="58" y="1136" fill="#173f41" font-family="SFMono-Regular, Consolas, Liberation Mono, monospace" font-size="16" font-weight="400"><tspan x="58" dy="0">/admin</tspan></text><rect x="312" y="1066" width="398" height="116" rx="10" fill="#f7f8f8" stroke="#8b9691" stroke-width="2"/><text x="330" y="1130" fill="#263331" font-family="Arial, Helvetica, sans-serif" font-size="17" font-weight="400"><tspan x="330" dy="0">Direct URL only</tspan></text><rect x="722" y="1066" width="350" height="116" rx="10" fill="#fff7f6" stroke="#b42318" stroke-width="2"/><text x="740" y="1114" fill="#263331" font-family="Arial, Helvetica, sans-serif" font-size="17" font-weight="400"><tspan x="740" dy="0">Authorized operator</tspan><tspan x="740" dy="27">Live data permissions</tspan></text><rect x="1084" y="1066" width="476" height="116" rx="10" fill="#fff7f6" stroke="#b42318" stroke-width="2"/><text x="1102" y="1114" fill="#263331" font-family="Arial, Helvetica, sans-serif" font-size="17" font-weight="400"><tspan x="1102" dy="0">New authors · Works · Editions</tspan><tspan x="1102" dy="27">Merges and personal-book links</tspan></text><rect x="40" y="1192" width="260" height="116" rx="10" fill="#e8f2f1" stroke="#35686a" stroke-width="2"/><text x="58" y="1230" fill="#263331" font-family="Arial, Helvetica, sans-serif" font-size="18" font-weight="700"><tspan x="58" dy="0">Catalog work page</tspan></text><text x="58" y="1262" fill="#173f41" font-family="SFMono-Regular, Consolas, Liberation Mono, monospace" font-size="16" font-weight="400"><tspan x="58" dy="0">/admin/works/[workId]</tspan></text><rect x="312" y="1192" width="398" height="116" rx="10" fill="#f7f8f8" stroke="#8b9691" stroke-width="2"/><text x="330" y="1240" fill="#263331" font-family="Arial, Helvetica, sans-serif" font-size="17" font-weight="400"><tspan x="330" dy="0">Catalog console work row</tspan><tspan x="330" dy="27">Author page work row · direct URL</tspan></text><rect x="722" y="1192" width="350" height="116" rx="10" fill="#fff7f6" stroke="#b42318" stroke-width="2"/><text x="740" y="1240" fill="#263331" font-family="Arial, Helvetica, sans-serif" font-size="17" font-weight="400"><tspan x="740" dy="0">Authorized operator</tspan><tspan x="740" dy="27">Live data permissions</tspan></text><rect x="1084" y="1192" width="476" height="116" rx="10" fill="#fff7f6" stroke="#b42318" stroke-width="2"/><text x="1102" y="1240" fill="#263331" font-family="Arial, Helvetica, sans-serif" font-size="17" font-weight="400"><tspan x="1102" dy="0">This Work and its Editions</tspan><tspan x="1102" dy="27">Its readers&apos; catalog links</tspan></text><rect x="40" y="1318" width="260" height="116" rx="10" fill="#e8f2f1" stroke="#35686a" stroke-width="2"/><text x="58" y="1356" fill="#263331" font-family="Arial, Helvetica, sans-serif" font-size="18" font-weight="700"><tspan x="58" dy="0">Catalog author page</tspan></text><text x="58" y="1388" fill="#173f41" font-family="SFMono-Regular, Consolas, Liberation Mono, monospace" font-size="16" font-weight="400"><tspan x="58" dy="0">/admin/authors/[authorId]</tspan></text><rect x="312" y="1318" width="398" height="116" rx="10" fill="#f7f8f8" stroke="#8b9691" stroke-width="2"/><text x="330" y="1366" fill="#263331" font-family="Arial, Helvetica, sans-serif" font-size="17" font-weight="400"><tspan x="330" dy="0">Catalog console author row</tspan><tspan x="330" dy="27">Work page author link · direct URL</tspan></text><rect x="722" y="1318" width="350" height="116" rx="10" fill="#fff7f6" stroke="#b42318" stroke-width="2"/><text x="740" y="1366" fill="#263331" font-family="Arial, Helvetica, sans-serif" font-size="17" font-weight="400"><tspan x="740" dy="0">Authorized operator</tspan><tspan x="740" dy="27">Live data permissions</tspan></text><rect x="1084" y="1318" width="476" height="116" rx="10" fill="#fff7f6" stroke="#b42318" stroke-width="2"/><text x="1102" y="1366" fill="#263331" font-family="Arial, Helvetica, sans-serif" font-size="17" font-weight="400"><tspan x="1102" dy="0">This author · merges into another</tspan><tspan x="1102" dy="27">Nothing else on this page</tspan></text><rect x="40" y="1444" width="260" height="116" rx="10" fill="#e8f2f1" stroke="#35686a" stroke-width="2"/><text x="58" y="1482" fill="#263331" font-family="Arial, Helvetica, sans-serif" font-size="18" font-weight="700"><tspan x="58" dy="0">Accounts and issues</tspan></text><text x="58" y="1514" fill="#173f41" font-family="SFMono-Regular, Consolas, Liberation Mono, monospace" font-size="16" font-weight="400"><tspan x="58" dy="0">/admin/users</tspan></text><rect x="312" y="1444" width="398" height="116" rx="10" fill="#f7f8f8" stroke="#8b9691" stroke-width="2"/><text x="330" y="1508" fill="#263331" font-family="Arial, Helvetica, sans-serif" font-size="17" font-weight="400"><tspan x="330" dy="0">Catalog console · direct URL</tspan></text><rect x="722" y="1444" width="350" height="116" rx="10" fill="#fff7f6" stroke="#b42318" stroke-width="2"/><text x="740" y="1508" fill="#263331" font-family="Arial, Helvetica, sans-serif" font-size="17" font-weight="400"><tspan x="740" dy="0">Authorized operator</tspan></text><rect x="1084" y="1444" width="476" height="116" rx="10" fill="#fff7f6" stroke="#b42318" stroke-width="2"/><text x="1102" y="1492" fill="#263331" font-family="Arial, Helvetica, sans-serif" font-size="17" font-weight="400"><tspan x="1102" dy="0">No page editing</tspan><tspan x="1102" dy="27">Operational access may be audited</tspan></text>
  <rect x="40" y="1582" width="1520" height="84" rx="10" fill="#fff7e8" stroke="#b98a3c" stroke-width="2"/><text x="58" y="1614" fill="#263331" font-family="Arial, Helvetica, sans-serif" font-size="17" font-weight="700"><tspan x="58" dy="0">Security boundary</tspan></text><text x="58" y="1643" fill="#52615e" font-family="Arial, Helvetica, sans-serif" font-size="16" font-weight="400"><tspan x="58" dy="0">Route checks guide navigation. Authenticated data permissions and server-side authorization enforce access. Signed-out private routes resume after authentication.</tspan></text>
</svg>
